<svg width="20" height="20" viewBox="0 0 20 20" fill="none" xmlns="http://www.w3.org/2000/svg">
<g id="ArrowLeftShort">
<path id="Vector" fill-rule="evenodd" clip-rule="evenodd" d="M15 10.0001C15 10.1658 14.9342 10.3248 14.817 10.442C14.6997 10.5592 14.5408 10.6251 14.375 10.6251H7.13377L9.81752 13.3076C9.87563 13.3657 9.92172 13.4347 9.95317 13.5106C9.98462 13.5865 10.0008 13.6679 10.0008 13.7501C10.0008 13.8322 9.98462 13.9136 9.95317 13.9895C9.92172 14.0655 9.87563 14.1344 9.81752 14.1926C9.75941 14.2507 9.69042 14.2968 9.6145 14.3282C9.53857 14.3597 9.4572 14.3758 9.37502 14.3758C9.29284 14.3758 9.21146 14.3597 9.13554 14.3282C9.05961 14.2968 8.99063 14.2507 8.93252 14.1926L5.18252 10.4426C5.12431 10.3845 5.07814 10.3155 5.04663 10.2396C5.01512 10.1637 4.9989 10.0823 4.9989 10.0001C4.9989 9.91785 5.01512 9.83645 5.04663 9.76052C5.07814 9.68458 5.12431 9.61561 5.18252 9.55756L8.93252 5.80756C9.04988 5.6902 9.20905 5.62427 9.37502 5.62427C9.54099 5.62427 9.70016 5.6902 9.81752 5.80756C9.93488 5.92492 10.0008 6.08409 10.0008 6.25006C10.0008 6.41603 9.93488 6.5752 9.81752 6.69256L7.13377 9.37506H14.375C14.5408 9.37506 14.6997 9.44091 14.817 9.55812C14.9342 9.67533 15 9.8343 15 10.0001Z" fill="#1FDA53"/>
</g>
</svg>
