<svg width="15" height="16" viewBox="0 0 15 16" fill="none" xmlns="http://www.w3.org/2000/svg">
<g id="ArrowUpRight">
<path id="Vector" fill-rule="evenodd" clip-rule="evenodd" d="M13.125 2.84375C13.125 2.71943 13.0756 2.6002 12.9877 2.51229C12.8998 2.42439 12.7806 2.375 12.6562 2.375H7.03123C6.90691 2.375 6.78768 2.42439 6.69978 2.51229C6.61187 2.6002 6.56248 2.71943 6.56248 2.84375C6.56248 2.96807 6.61187 3.0873 6.69978 3.17521C6.78768 3.26311 6.90691 3.3125 7.03123 3.3125H11.5247L2.01186 12.8244C1.96827 12.868 1.9337 12.9197 1.91012 12.9766C1.88653 13.0336 1.87439 13.0946 1.87439 13.1562C1.87439 13.2179 1.88653 13.2789 1.91012 13.3359C1.9337 13.3928 1.96827 13.4445 2.01186 13.4881C2.05544 13.5317 2.10718 13.5663 2.16412 13.5899C2.22107 13.6135 2.2821 13.6256 2.34373 13.6256C2.40537 13.6256 2.4664 13.6135 2.52334 13.5899C2.58028 13.5663 2.63202 13.5317 2.67561 13.4881L12.1875 3.97531V8.46875C12.1875 8.59307 12.2369 8.7123 12.3248 8.80021C12.4127 8.88811 12.5319 8.9375 12.6562 8.9375C12.7806 8.9375 12.8998 8.88811 12.9877 8.80021C13.0756 8.7123 13.125 8.59307 13.125 8.46875V2.84375Z" fill="#000000"/>
</g>
</svg>
