<svg width="13" height="14" viewBox="0 0 13 14" fill="none" xmlns="http://www.w3.org/2000/svg">
<g clip-path="url(#clip0_573_9471)">
<path d="M8.9375 5.78125C8.9375 5.67351 8.9803 5.57017 9.05649 5.49399C9.13267 5.4178 9.23601 5.375 9.34375 5.375H10.1562C10.264 5.375 10.3673 5.4178 10.4435 5.49399C10.5197 5.57017 10.5625 5.67351 10.5625 5.78125V6.59375C10.5625 6.70149 10.5197 6.80483 10.4435 6.88101C10.3673 6.9572 10.264 7 10.1562 7H9.34375C9.23601 7 9.13267 6.9572 9.05649 6.88101C8.9803 6.80483 8.9375 6.70149 8.9375 6.59375V5.78125ZM6.5 5.78125C6.5 5.67351 6.5428 5.57017 6.61899 5.49399C6.69517 5.4178 6.79851 5.375 6.90625 5.375H7.71875C7.82649 5.375 7.92983 5.4178 8.00601 5.49399C8.0822 5.57017 8.125 5.67351 8.125 5.78125V6.59375C8.125 6.70149 8.0822 6.80483 8.00601 6.88101C7.92983 6.9572 7.82649 7 7.71875 7H6.90625C6.79851 7 6.69517 6.9572 6.61899 6.88101C6.5428 6.80483 6.5 6.70149 6.5 6.59375V5.78125ZM2.4375 8.21875C2.4375 8.11101 2.4803 8.00767 2.55649 7.93149C2.63267 7.8553 2.73601 7.8125 2.84375 7.8125H3.65625C3.76399 7.8125 3.86733 7.8553 3.94351 7.93149C4.0197 8.00767 4.0625 8.11101 4.0625 8.21875V9.03125C4.0625 9.13899 4.0197 9.24233 3.94351 9.31851C3.86733 9.3947 3.76399 9.4375 3.65625 9.4375H2.84375C2.73601 9.4375 2.63267 9.3947 2.55649 9.31851C2.4803 9.24233 2.4375 9.13899 2.4375 9.03125V8.21875ZM4.875 8.21875C4.875 8.11101 4.9178 8.00767 4.99399 7.93149C5.07017 7.8553 5.17351 7.8125 5.28125 7.8125H6.09375C6.20149 7.8125 6.30483 7.8553 6.38101 7.93149C6.4572 8.00767 6.5 8.11101 6.5 8.21875V9.03125C6.5 9.13899 6.4572 9.24233 6.38101 9.31851C6.30483 9.3947 6.20149 9.4375 6.09375 9.4375H5.28125C5.17351 9.4375 5.07017 9.3947 4.99399 9.31851C4.9178 9.24233 4.875 9.13899 4.875 9.03125V8.21875Z" fill="#1FDA53"/>
<path d="M2.84375 0.5C2.95149 0.5 3.05483 0.542801 3.13101 0.618988C3.2072 0.695175 3.25 0.798506 3.25 0.90625V1.3125H9.75V0.90625C9.75 0.798506 9.7928 0.695175 9.86899 0.618988C9.94517 0.542801 10.0485 0.5 10.1562 0.5C10.264 0.5 10.3673 0.542801 10.4435 0.618988C10.5197 0.695175 10.5625 0.798506 10.5625 0.90625V1.3125H11.375C11.806 1.3125 12.2193 1.4837 12.524 1.78845C12.8288 2.0932 13 2.50652 13 2.9375V11.875C13 12.306 12.8288 12.7193 12.524 13.024C12.2193 13.3288 11.806 13.5 11.375 13.5H1.625C1.19402 13.5 0.780698 13.3288 0.475952 13.024C0.171205 12.7193 0 12.306 0 11.875V2.9375C0 2.50652 0.171205 2.0932 0.475952 1.78845C0.780698 1.4837 1.19402 1.3125 1.625 1.3125H2.4375V0.90625C2.4375 0.798506 2.4803 0.695175 2.55649 0.618988C2.63267 0.542801 2.73601 0.5 2.84375 0.5ZM0.8125 3.75V11.875C0.8125 12.0905 0.898102 12.2972 1.05048 12.4495C1.20285 12.6019 1.40951 12.6875 1.625 12.6875H11.375C11.5905 12.6875 11.7972 12.6019 11.9495 12.4495C12.1019 12.2972 12.1875 12.0905 12.1875 11.875V3.75H0.8125Z" fill="#1FDA53"/>
</g>
<defs>
<clipPath id="clip0_573_9471">
<rect width="13" height="13" fill="white" transform="translate(0 0.5)"/>
</clipPath>
</defs>
</svg>
