<svg width="15" height="16" viewBox="0 0 15 16" fill="none" xmlns="http://www.w3.org/2000/svg">
<g id="ChevronRight">
<path id="Vector" fill-rule="evenodd" clip-rule="evenodd" d="M4.35561 2.04311C4.39915 1.99946 4.45088 1.96482 4.50783 1.94119C4.56478 1.91756 4.62583 1.9054 4.68748 1.9054C4.74914 1.9054 4.81019 1.91756 4.86714 1.94119C4.92409 1.96482 4.97582 1.99946 5.01936 2.04311L10.6444 7.66811C10.688 7.71165 10.7226 7.76338 10.7463 7.82033C10.7699 7.87728 10.7821 7.93833 10.7821 7.99998C10.7821 8.06164 10.7699 8.12269 10.7463 8.17964C10.7226 8.23659 10.688 8.28832 10.6444 8.33186L5.01936 13.9569C4.93134 14.0449 4.81196 14.0943 4.68748 14.0943C4.56301 14.0943 4.44363 14.0449 4.35561 13.9569C4.26759 13.8688 4.21814 13.7495 4.21814 13.625C4.21814 13.5005 4.26759 13.3811 4.35561 13.2931L9.64967 7.99998L4.35561 2.70686C4.31196 2.66332 4.27732 2.61159 4.25369 2.55464C4.23006 2.49769 4.2179 2.43664 4.2179 2.37498C4.2179 2.31333 4.23006 2.25228 4.25369 2.19533C4.27732 2.13838 4.31196 2.08665 4.35561 2.04311Z" fill="#1FDA53"/>
</g>
</svg>
