<svg width="248" height="221" viewBox="0 0 248 221" fill="none" xmlns="http://www.w3.org/2000/svg">
<path d="M24.1548 24.1827L24.1557 24.1818C24.7421 23.5932 25.4387 23.1263 26.2056 22.8077C26.9724 22.4891 27.7945 22.3251 28.6247 22.3251C29.455 22.3251 30.2771 22.4891 31.0439 22.8077C31.8108 23.1263 32.5074 23.5932 33.0938 24.1818L33.0943 24.1822L114.844 106.026L114.845 106.027C115.433 106.614 115.899 107.311 116.218 108.079C116.536 108.847 116.7 109.67 116.7 110.502C116.7 111.333 116.536 112.156 116.218 112.924C115.899 113.692 115.433 114.39 114.845 114.977L114.844 114.977L33.0943 196.821C31.9088 198.008 30.301 198.675 28.6247 198.675C26.9485 198.675 25.3407 198.008 24.1552 196.821C22.9697 195.635 22.3036 194.025 22.3036 192.346C22.3036 190.667 22.9697 189.057 24.1552 187.871L101.096 110.855L101.449 110.502L101.096 110.148L24.1552 33.1331L24.1548 33.1327C23.5669 32.5456 23.1004 31.8481 22.7822 31.0802C22.4639 30.3123 22.3 29.4891 22.3 28.6577C22.3 27.8262 22.4639 27.003 22.7822 26.2351C23.1004 25.4672 23.5669 24.7697 24.1548 24.1827Z" stroke="#59ED82"/>
<path d="M78.655 24.1827L78.6559 24.1818C79.2423 23.5932 79.9389 23.1263 80.7058 22.8077C81.4727 22.4891 82.2948 22.3251 83.125 22.3251C83.9552 22.3251 84.7773 22.4891 85.5442 22.8077C86.3111 23.1263 87.0076 23.5932 87.594 24.1818L87.5945 24.1822L169.345 106.026L169.345 106.027C169.933 106.614 170.399 107.311 170.718 108.079C171.036 108.847 171.2 109.67 171.2 110.502C171.2 111.333 171.036 112.156 170.718 112.924C170.399 113.692 169.933 114.39 169.345 114.977L169.345 114.977L87.5945 196.821C86.409 198.008 84.8013 198.675 83.125 198.675C81.4487 198.675 79.841 198.008 78.6555 196.821C77.47 195.635 76.8039 194.025 76.8039 192.346C76.8039 190.667 77.47 189.057 78.6555 187.871L155.596 110.855L155.949 110.502L155.596 110.148L78.6555 33.1331L78.655 33.1327C78.0671 32.5456 77.6007 31.8481 77.2824 31.0802C76.9641 30.3123 76.8003 29.4891 76.8003 28.6577C76.8003 27.8262 76.9641 27.003 77.2824 26.2351C77.6007 25.4672 78.0671 24.7697 78.655 24.1827Z" stroke="#59ED82"/>
<path d="M133.155 24.1827L133.156 24.1818C133.742 23.5932 134.439 23.1263 135.206 22.8077C135.973 22.4891 136.795 22.3251 137.625 22.3251C138.455 22.3251 139.277 22.4891 140.044 22.8077C140.811 23.1263 141.508 23.5932 142.094 24.1818L142.094 24.1822L223.845 106.026L223.845 106.027C224.433 106.614 224.899 107.311 225.218 108.079C225.536 108.847 225.7 109.67 225.7 110.502C225.7 111.333 225.536 112.156 225.218 112.924C224.899 113.692 224.433 114.39 223.845 114.977L223.845 114.977L142.094 196.821C140.909 198.008 139.301 198.675 137.625 198.675C135.949 198.675 134.341 198.008 133.155 196.821C131.97 195.635 131.304 194.025 131.304 192.346C131.304 190.667 131.97 189.057 133.155 187.871L210.096 110.855L210.449 110.502L210.096 110.148L133.155 33.1331L133.155 33.1327C132.567 32.5456 132.101 31.8481 131.782 31.0802C131.464 30.3123 131.3 29.4891 131.3 28.6577C131.3 27.8262 131.464 27.003 131.782 26.2351C132.101 25.4672 132.567 24.7697 133.155 24.1827Z" stroke="#59ED82"/>
</svg>
