<svg width="26" height="38" viewBox="0 0 26 38" fill="none" xmlns="http://www.w3.org/2000/svg">
<g clip-path="url(#clip0_420_7571)">
<path d="M6.3385 38C9.83601 38 12.6746 35.1626 12.6746 31.6666V25.3333H6.3385C2.841 25.3333 0.00244141 28.1706 0.00244141 31.6666C0.00244141 35.1626 2.841 38 6.3385 38Z" fill="#0ACF83"/>
<path d="M0.00244141 19C0.00244141 15.504 2.841 12.6667 6.3385 12.6667H12.6746V25.3334H6.3385C2.841 25.3334 0.00244141 22.496 0.00244141 19Z" fill="#A259FF"/>
<path d="M0.00268555 6.33333C0.00268555 2.83733 2.84124 0 6.33875 0H12.6748V12.6667H6.33875C2.84124 12.6667 0.00268555 9.82933 0.00268555 6.33333Z" fill="#F24E1E"/>
<path d="M12.6746 0H19.0106C22.5081 0 25.3467 2.83733 25.3467 6.33333C25.3467 9.82933 22.5081 12.6667 19.0106 12.6667H12.6746V0Z" fill="#FF7262"/>
<path d="M25.3467 19C25.3467 22.496 22.5081 25.3334 19.0106 25.3334C15.5131 25.3334 12.6746 22.496 12.6746 19C12.6746 15.504 15.5131 12.6667 19.0106 12.6667C22.5081 12.6667 25.3467 15.504 25.3467 19Z" fill="#1ABCFE"/>
</g>
<defs>
<clipPath id="clip0_420_7571">
<rect width="25.3493" height="38" fill="white"/>
</clipPath>
</defs>
</svg>
