<svg width="13" height="14" viewBox="0 0 13 14" fill="none" xmlns="http://www.w3.org/2000/svg">
<g clip-path="url(#clip0_573_9481)">
<path d="M0 1.3125C0 1.09701 0.0856024 0.890349 0.237976 0.737976C0.390349 0.585602 0.597012 0.5 0.8125 0.5H4.875C5.09049 0.5 5.29715 0.585602 5.44952 0.737976C5.6019 0.890349 5.6875 1.09701 5.6875 1.3125V12.6875C5.6875 12.903 5.6019 13.1097 5.44952 13.262C5.29715 13.4144 5.09049 13.5 4.875 13.5H0.8125C0.597012 13.5 0.390349 13.4144 0.237976 13.262C0.0856024 13.1097 0 12.903 0 12.6875V1.3125ZM7.3125 1.3125C7.3125 1.09701 7.3981 0.890349 7.55048 0.737976C7.70285 0.585602 7.90951 0.5 8.125 0.5H12.1875C12.403 0.5 12.6097 0.585602 12.762 0.737976C12.9144 0.890349 13 1.09701 13 1.3125V5.375C13 5.59049 12.9144 5.79715 12.762 5.94952C12.6097 6.1019 12.403 6.1875 12.1875 6.1875H8.125C7.90951 6.1875 7.70285 6.1019 7.55048 5.94952C7.3981 5.79715 7.3125 5.59049 7.3125 5.375V1.3125ZM7.3125 8.625C7.3125 8.40951 7.3981 8.20285 7.55048 8.05048C7.70285 7.8981 7.90951 7.8125 8.125 7.8125H12.1875C12.403 7.8125 12.6097 7.8981 12.762 8.05048C12.9144 8.20285 13 8.40951 13 8.625V12.6875C13 12.903 12.9144 13.1097 12.762 13.262C12.6097 13.4144 12.403 13.5 12.1875 13.5H8.125C7.90951 13.5 7.70285 13.4144 7.55048 13.262C7.3981 13.1097 7.3125 12.903 7.3125 12.6875V8.625Z" fill="#1FDA53"/>
</g>
<defs>
<clipPath id="clip0_573_9481">
<rect width="13" height="13" fill="white" transform="translate(0 0.5)"/>
</clipPath>
</defs>
</svg>
