<svg width="40" height="41" viewBox="0 0 40 41" fill="none" xmlns="http://www.w3.org/2000/svg">
<g clip-path="url(#clip0_494_1040)">
<path d="M30.0003 30.5001C35.5232 24.9772 35.5232 16.0228 30.0003 10.4999C24.4774 4.97698 15.523 4.97698 10.0001 10.4999C4.4772 16.0228 4.4772 24.9772 10.0001 30.5001C15.523 36.023 24.4774 36.023 30.0003 30.5001Z" fill="black"/>
<path fill-rule="evenodd" clip-rule="evenodd" d="M15.84 11.4916H24.1591C25.4492 11.497 26.6849 12.0119 27.5971 12.9242C28.5093 13.8364 29.0242 15.0721 29.0297 16.3621V24.6383C29.0242 25.9284 28.5093 27.1641 27.5971 28.0763C26.6849 28.9885 25.4492 29.5034 24.1591 29.5089H15.84C14.5499 29.5034 13.3142 28.9885 12.402 28.0763C11.4898 27.1641 10.9749 25.9284 10.9694 24.6383V16.3626C10.9749 15.0726 11.4898 13.8369 12.402 12.9247C13.3142 12.0124 14.5499 11.4975 15.84 11.4921V11.4916ZM24.8489 14.6383C25.1221 14.642 25.3831 14.7522 25.5763 14.9454C25.7695 15.1387 25.8797 15.3997 25.8834 15.6729C25.8797 15.9461 25.7695 16.2071 25.5763 16.4004C25.3831 16.5936 25.1221 16.7038 24.8489 16.7075C24.7125 16.7094 24.5771 16.6839 24.4507 16.6325C24.3244 16.5812 24.2096 16.5051 24.1131 16.4086C24.0167 16.3122 23.9406 16.1974 23.8892 16.071C23.8379 15.9447 23.8124 15.8093 23.8143 15.6729C23.8124 15.5365 23.8379 15.4012 23.8892 15.2748C23.9406 15.1484 24.0167 15.0336 24.1131 14.9372C24.2096 14.8408 24.3244 14.7646 24.4507 14.7133C24.5771 14.662 24.7125 14.6365 24.8489 14.6383ZM19.9783 15.5865H20.0213C21.3202 15.6005 22.562 16.1227 23.4805 17.0412C24.3991 17.9598 24.9213 19.2015 24.9353 20.5005C24.9283 21.8016 24.4083 23.0474 23.4883 23.9675C22.5682 24.8875 21.3224 25.4075 20.0213 25.4145H19.9783C18.6816 25.406 17.4411 24.8842 16.5283 23.9632C15.6155 23.0423 15.1047 21.7972 15.1077 20.5005C15.1121 19.206 15.6252 17.9652 16.5365 17.0458C17.4477 16.1264 18.6839 15.6023 19.9783 15.5865ZM19.9783 17.2663H20.0213C20.8767 17.2725 21.6954 17.6151 22.3003 18.22C22.9052 18.8249 23.2478 19.6435 23.254 20.499C23.2568 21.3612 22.9184 22.1895 22.3128 22.8032C21.7072 23.4168 20.8834 23.7661 20.0213 23.7747H19.9783C19.1162 23.766 18.2925 23.4167 17.6869 22.803C17.0813 22.1894 16.7429 21.3611 16.7456 20.499C16.7518 19.6435 17.0944 18.8249 17.6993 18.22C18.3042 17.6151 19.1228 17.2725 19.9783 17.2663ZM15.8834 13.042H24.1161C25.007 13.0431 25.8612 13.3974 26.4914 14.0272C27.1216 14.6569 27.4765 15.5108 27.4783 16.4017V24.5914C27.4771 25.4827 27.1225 26.3372 26.4923 26.9675C25.862 27.5978 25.0075 27.9524 24.1161 27.9535H15.881C14.9901 27.9517 14.1362 27.5968 13.5065 26.9666C12.8767 26.3364 12.5225 25.4823 12.5213 24.5914V16.4056C12.523 15.5151 12.8775 14.6615 13.5072 14.0318C14.1369 13.4021 14.9904 13.0476 15.881 13.0459L15.8834 13.042Z" fill="white"/>
</g>
<defs>
<clipPath id="clip0_494_1040">
<rect width="40" height="40" fill="white" transform="translate(0 0.5)"/>
</clipPath>
</defs>
</svg>
