<svg width="177" height="43" viewBox="0 0 177 43" fill="none" xmlns="http://www.w3.org/2000/svg">
<path fill-rule="evenodd" clip-rule="evenodd" d="M50.1216 28.7H51.6216C51.6052 28.7607 51.5875 28.821 51.5684 28.8809C51.4316 29.3001 51.2448 29.6693 51.0078 29.9883C50.7708 30.2982 50.4928 30.5443 50.1738 30.7266C49.8639 30.9089 49.5267 31 49.1621 31H47.6621H41.916H40.416C40.0605 31 39.7233 30.9089 39.4043 30.7266C39.0944 30.5443 38.821 30.2982 38.584 29.9883C38.3561 29.6784 38.1738 29.3138 38.0371 28.8945C38.0162 28.8303 37.9968 28.7655 37.9791 28.7H38.4999L38.5125 28.7395C38.6345 29.1137 38.7932 29.4278 38.9841 29.6883C39.1837 29.9485 39.4077 30.148 39.6551 30.294C39.9003 30.4336 40.1515 30.5 40.416 30.5H40.5777C40.3985 30.355 40.234 30.1844 40.084 29.9883C39.8561 29.6784 39.6738 29.3138 39.5371 28.8945C39.5162 28.8303 39.4968 28.7655 39.4791 28.7H40.5176L47.3691 28.7H49.6011H50.1216ZM37.832 27.2H38.332V22.3398H39.332V27.2H40.5176H41.0176H42.5176V21.8398H41.0176H40.5176H39.332H38.332H37.832V22.3398V27.2ZM46.8691 27.2H47.3691V14.08L46.8691 14.08V27.2ZM49.7734 27.2H48.3691V14.08L49.7734 14.08H50.2734L51.7734 14.08V27.2H50.2734H49.7734ZM41.3398 10.2734H42.3398H49.7734H50.2734H51.7734V12.58L50.2734 12.58H49.7734L48 12.58V12.584H45.998H42.3398H41.3398H40.8398V12.084V10.7734V10.2734H41.3398ZM42.3398 12.084H41.3398V10.7734H42.3398V12.084ZM57.8236 12.5446L57.8226 12.5476L57.8122 12.58L57.2913 12.58C57.3085 12.5168 57.3271 12.4544 57.3473 12.3926C57.484 11.9642 57.6663 11.5951 57.8941 11.2852C58.1311 10.9661 58.4046 10.7201 58.7145 10.5469C59.0243 10.3646 59.357 10.2734 59.7125 10.2734H61.2125H67.6422H69.1422C69.4977 10.2734 69.8349 10.3646 70.1539 10.5469C70.4729 10.7201 70.7464 10.9661 70.9742 11.2852C71.2112 11.5951 71.398 11.9642 71.5348 12.3926C71.5549 12.4544 71.5736 12.5168 71.5908 12.58H70.0908H69.5698L67.4859 12.58L59.9098 12.58L58.7913 12.58C58.8085 12.5168 58.8271 12.4544 58.8473 12.3926C58.984 11.9642 59.1663 11.5951 59.3941 11.2852C59.5419 11.0862 59.7039 10.9157 59.88 10.7734H59.7125C59.4472 10.7734 59.2019 10.8402 58.968 10.9778L58.9584 10.9835L58.9584 10.9833C58.7175 11.118 58.496 11.3137 58.2963 11.5822C58.1058 11.8415 57.9464 12.1598 57.8236 12.5446ZM57.1422 14.08L57.6422 14.08V19.65H57.1422V14.08ZM57.1422 21.15V27.3H57.6422V21.15H57.1422ZM57.3473 28.8945C57.337 28.8632 57.3272 28.8317 57.3177 28.8H57.8428C57.962 29.1477 58.1137 29.442 58.2942 29.6884C58.4946 29.9495 58.7195 30.1494 58.968 30.2956C59.2019 30.4332 59.4472 30.5 59.7125 30.5H59.8879C59.7087 30.355 59.5441 30.1844 59.3941 29.9883C59.1663 29.6784 58.984 29.3138 58.8473 28.8945C58.837 28.8632 58.8272 28.8317 58.8177 28.8H59.9098L67.4859 28.8H69.5391H70.0643H71.5643C71.5548 28.8317 71.545 28.8632 71.5348 28.8945C71.398 29.3138 71.2112 29.6784 70.9742 29.9883C70.7372 30.2982 70.4592 30.5443 70.1402 30.7266C69.8303 30.9089 69.4977 31 69.1422 31H67.6422H61.2125H59.7125C59.357 31 59.0243 30.9089 58.7145 30.7266C58.4046 30.5443 58.1311 30.2982 57.8941 29.9883C57.6663 29.6784 57.484 29.3138 57.3473 28.8945ZM70.2398 27.3H69.7398H68.4859V21.15L69.7398 21.15H70.2398L71.7398 21.15V27.3H70.2398ZM66.9859 27.3H67.4859V21.15H66.9859V27.3ZM59.9098 21.15L60.4098 21.15L61.9098 21.15V27.3H60.4098H59.9098H58.6422V21.15H59.9098ZM66.9859 19.65H67.4859V14.08H66.9859V19.65ZM69.7398 19.65L68.4859 19.65V14.08L69.7398 14.08H70.2398H71.7398V19.65L70.2398 19.65H69.7398ZM60.4098 19.65L59.9098 19.65H58.6422V14.08L59.9098 14.08L60.4098 14.08L61.9098 14.08V19.65L60.4098 19.65ZM77.79 12.5583L77.789 12.5613L77.7767 12.6H77.256C77.2736 12.5347 77.2929 12.4701 77.3137 12.4062C77.4504 11.9779 77.6327 11.6087 77.8605 11.2988C78.0975 10.9798 78.371 10.7337 78.6809 10.5605C78.9908 10.3783 79.3234 10.2871 79.6789 10.2871H81.1789H90.1164H90.6164H92.1164V12.5977H90.6164H90.1164H81.8762V12.6H80.3762H79.8762L78.756 12.6C78.7736 12.5347 78.7929 12.4701 78.8137 12.4062C78.9504 11.9779 79.1327 11.6087 79.3605 11.2988C79.5083 11.0999 79.6703 10.9293 79.8464 10.7871H79.6789C79.4137 10.7871 79.1684 10.8539 78.9344 10.9915L78.9248 10.9971L78.9248 10.997C78.6838 11.1317 78.4623 11.3274 78.2626 11.5961C78.0722 11.8554 77.9128 12.1736 77.79 12.5583ZM77.6086 14.1V27.2H77.1086V14.1L77.6086 14.1ZM77.2557 28.7H77.7764L77.789 28.7395C77.911 29.1136 78.0698 29.4278 78.2606 29.6883C78.461 29.9495 78.6859 30.1494 78.9344 30.2956C79.1684 30.4332 79.4137 30.5 79.6789 30.5H79.8543C79.6751 30.355 79.5105 30.1844 79.3605 29.9883C79.1327 29.6784 78.9504 29.3138 78.8137 28.8945C78.7927 28.8303 78.7734 28.7655 78.7557 28.7H79.8762L87.9035 28.7H90.1242H90.6242H92.1242L92.1164 32.5996C92.1164 33.0645 92.048 33.502 91.9113 33.9121C91.7837 34.3314 91.606 34.696 91.3781 35.0059C91.1503 35.3249 90.8814 35.5755 90.5715 35.7578C90.2616 35.9401 89.9335 36.0312 89.5871 36.0312H88.9035V35.8468C88.6437 35.9698 88.3715 36.0312 88.0871 36.0312H87.9035H87.4035V35.5312V31.5V31H86.9035H81.1789H79.6789C79.3234 31 78.9908 30.9089 78.6809 30.7266C78.371 30.5443 78.0975 30.2982 77.8605 29.9883C77.6327 29.6784 77.4504 29.3138 77.3137 28.8945C77.2927 28.8303 77.2734 28.7655 77.2557 28.7ZM87.9035 31V35.5312H88.0871C88.3408 35.5312 88.5819 35.4657 88.818 35.3268C88.8469 35.3099 88.8754 35.2921 88.9035 35.2735V31H87.9035ZM87.9035 19.4277H88.9035V27.2H90.1272H90.6272H92.1272L92.1437 18.9277H90.6437H90.1437H88.9035H87.9035H87.4035V19.4277V27.2H87.9035V19.4277ZM79.8762 27.2H78.6086V14.1L79.8762 14.1H80.3762H81.8762V27.2H80.3762H79.8762ZM100.479 10.2734H101.979V14.0994L104.458 11.3398C104.749 10.9935 105.105 10.7292 105.524 10.5469C105.953 10.3646 106.386 10.2734 106.823 10.2734C107.071 10.2734 107.304 10.3079 107.521 10.3768C107.787 10.3079 108.054 10.2734 108.323 10.2734C108.706 10.2734 109.052 10.3555 109.362 10.5195C109.672 10.6836 109.936 10.9115 110.155 11.2031C110.374 11.4857 110.542 11.8229 110.661 12.2148C110.779 12.5977 110.839 13.0078 110.839 13.4453V13.9216L112.934 11.3398C113.199 10.9753 113.55 10.7064 113.987 10.5332C114.434 10.36 114.871 10.2734 115.3 10.2734C115.544 10.2734 115.774 10.307 115.989 10.3741C116.263 10.307 116.533 10.2734 116.8 10.2734C117.182 10.2734 117.529 10.3555 117.839 10.5195C118.149 10.6836 118.413 10.9115 118.632 11.2031C118.85 11.4857 119.019 11.8229 119.137 12.2148C119.256 12.5977 119.315 13.0078 119.315 13.4453V19.5H117.815H117.315H116.089V12.9531L115.089 14.1484V19.5H114.589V14.7461L110.839 19.2285V19.5H109.339H108.839H107.612V12.9531L106.612 14.0672V19.5H106.112V14.6242L101.979 19.2285V19.5H100.479H99.9793H98.7117V10.7734H97.7117V19.5H97.2117V10.7734V10.2734H97.7117H98.7117H99.9793H100.479ZM114.999 10.7901C114.732 10.8194 114.456 10.8879 114.169 10.9988C113.817 11.1386 113.545 11.3497 113.339 11.6333L113.331 11.6444L113.323 11.655L110.839 14.715V15.7695L114.434 11.3398C114.592 11.1226 114.78 10.9393 114.999 10.7901ZM106.583 10.7844C106.297 10.8105 106.011 10.8835 105.722 11.0062C105.373 11.158 105.081 11.3756 104.84 11.6619L104.835 11.668L104.83 11.6739L101.979 14.8477V15.7695L105.958 11.3398C106.141 11.1223 106.349 10.9372 106.583 10.7844ZM117.815 21H119.315V27.2H117.815H117.315H116.089V21H117.315H117.815ZM115.258 28.749C115.253 28.7327 115.249 28.7164 115.244 28.7H114.726C114.742 28.7655 114.761 28.8303 114.78 28.8945C114.908 29.3138 115.081 29.6784 115.3 29.9883C115.527 30.2982 115.792 30.5443 116.093 30.7266C116.402 30.9089 116.735 31 117.091 31H118.376C118.413 31 118.449 30.9991 118.486 30.9973C118.521 30.9991 118.555 31 118.591 31H119.876C120.177 31 120.464 30.9408 120.737 30.8223C121.011 30.6947 121.252 30.526 121.462 30.3164C121.68 30.1068 121.858 29.8607 121.995 29.5781C122.135 29.298 122.225 29.0053 122.264 28.7H120.764H117.315H116.226C116.242 28.7655 116.261 28.8303 116.28 28.8945C116.408 29.3138 116.581 29.6784 116.8 29.9883C116.944 30.1844 117.103 30.355 117.276 30.5H117.091C116.826 30.5 116.582 30.4337 116.349 30.2972C116.111 30.1528 115.896 29.955 115.705 29.6958C115.523 29.4365 115.372 29.123 115.258 28.749ZM115.089 21V27.2H114.589V21H115.089ZM108.839 21H107.612V27.2H108.839H109.339L110.839 27.2V21H109.339H108.839ZM106.612 30.5V28.7H106.112V30.5V31H106.612H107.612H108.839H109.339H110.839V28.7L109.339 28.7H108.839H107.612V30.5H106.612ZM106.612 21V27.2H106.112V21H106.612ZM99.9793 21H98.7117V27.2H99.9793H100.479H101.979V21H100.479H99.9793ZM97.7117 30.5V28.7H97.2117V30.5V31H97.7117H98.7117H99.9793H100.479H101.979V28.7H100.479H99.9793H98.7117V30.5H97.7117ZM97.7117 21V27.2H97.2117V21H97.7117ZM126.145 12.5583L126.144 12.5613L126.131 12.6L125.611 12.6C125.628 12.5347 125.648 12.4701 125.668 12.4062C125.805 11.9779 125.987 11.6087 126.215 11.2988C126.452 10.9798 126.726 10.7337 127.036 10.5605C127.345 10.3783 127.678 10.2871 128.034 10.2871H129.534H138.471H138.971H140.471V12.5977H138.971H138.471H130.231V12.6H128.731H128.231L127.111 12.6C127.128 12.5347 127.148 12.4701 127.168 12.4062C127.305 11.9779 127.487 11.6087 127.715 11.2988C127.863 11.0999 128.025 10.9293 128.201 10.7871H128.034C127.768 10.7871 127.523 10.8539 127.289 10.9915L127.28 10.9971L127.279 10.997C127.038 11.1317 126.817 11.3277 126.617 11.5965C126.427 11.8557 126.267 12.1738 126.145 12.5583ZM125.963 14.1V27.2H125.463V14.1L125.963 14.1ZM125.61 28.7H126.131L126.144 28.7395C126.266 29.1136 126.424 29.4278 126.615 29.6883C126.816 29.9495 127.041 30.1494 127.289 30.2956C127.523 30.4332 127.768 30.5 128.034 30.5H128.209C128.03 30.355 127.865 30.1844 127.715 29.9883C127.487 29.6784 127.305 29.3138 127.168 28.8945C127.147 28.8303 127.128 28.7655 127.11 28.7H128.231L136.258 28.7H138.479H138.979H140.479L140.471 32.5996C140.471 33.0645 140.403 33.502 140.266 33.9121C140.138 34.3314 139.961 34.696 139.733 35.0059C139.505 35.3249 139.236 35.5755 138.926 35.7578C138.616 35.9401 138.288 36.0312 137.942 36.0312H137.258V35.8468C136.998 35.9698 136.726 36.0312 136.442 36.0312H136.258H135.758V35.5312V31.5V31H135.258H129.534H128.034C127.678 31 127.345 30.9089 127.036 30.7266C126.726 30.5443 126.452 30.2982 126.215 29.9883C125.987 29.6784 125.805 29.3138 125.668 28.8945C125.647 28.8303 125.628 28.7655 125.61 28.7ZM136.258 31V35.5312H136.442C136.696 35.5312 136.937 35.4657 137.173 35.3268C137.202 35.3099 137.23 35.2921 137.258 35.2735V31H136.258ZM136.258 19.4277H137.258V27.2H138.482H138.982H140.482L140.498 18.9277H138.998H138.498H137.258H136.258H135.758V19.4277V27.2H136.258V19.4277ZM128.231 27.2H126.963V14.1L128.231 14.1H128.731H130.231V27.2H128.731H128.231Z" fill="#1FDA53"/>
</svg>
