<svg width="13" height="14" viewBox="0 0 13 14" fill="none" xmlns="http://www.w3.org/2000/svg">
<g clip-path="url(#clip0_573_9466)">
<path d="M1.21875 1.3125C1.11101 1.3125 1.00767 1.3553 0.931488 1.43149C0.855301 1.50767 0.8125 1.61101 0.8125 1.71875V4.15625C0.8125 4.26399 0.769699 4.36733 0.693512 4.44351C0.617325 4.5197 0.513994 4.5625 0.40625 4.5625C0.298506 4.5625 0.195175 4.5197 0.118988 4.44351C0.0428012 4.36733 0 4.26399 0 4.15625V1.71875C0 1.39552 0.128404 1.08552 0.356964 0.856964C0.585524 0.628404 0.895517 0.5 1.21875 0.5L3.65625 0.5C3.76399 0.5 3.86733 0.542801 3.94351 0.618988C4.0197 0.695175 4.0625 0.798506 4.0625 0.90625C4.0625 1.01399 4.0197 1.11733 3.94351 1.19351C3.86733 1.2697 3.76399 1.3125 3.65625 1.3125H1.21875ZM8.9375 0.90625C8.9375 0.798506 8.9803 0.695175 9.05649 0.618988C9.13267 0.542801 9.23601 0.5 9.34375 0.5H11.7812C12.1045 0.5 12.4145 0.628404 12.643 0.856964C12.8716 1.08552 13 1.39552 13 1.71875V4.15625C13 4.26399 12.9572 4.36733 12.881 4.44351C12.8048 4.5197 12.7015 4.5625 12.5938 4.5625C12.486 4.5625 12.3827 4.5197 12.3065 4.44351C12.2303 4.36733 12.1875 4.26399 12.1875 4.15625V1.71875C12.1875 1.61101 12.1447 1.50767 12.0685 1.43149C11.9923 1.3553 11.889 1.3125 11.7812 1.3125H9.34375C9.23601 1.3125 9.13267 1.2697 9.05649 1.19351C8.9803 1.11733 8.9375 1.01399 8.9375 0.90625ZM0.40625 9.4375C0.513994 9.4375 0.617325 9.4803 0.693512 9.55649C0.769699 9.63267 0.8125 9.73601 0.8125 9.84375V12.2812C0.8125 12.389 0.855301 12.4923 0.931488 12.5685C1.00767 12.6447 1.11101 12.6875 1.21875 12.6875H3.65625C3.76399 12.6875 3.86733 12.7303 3.94351 12.8065C4.0197 12.8827 4.0625 12.986 4.0625 13.0938C4.0625 13.2015 4.0197 13.3048 3.94351 13.381C3.86733 13.4572 3.76399 13.5 3.65625 13.5H1.21875C0.895517 13.5 0.585524 13.3716 0.356964 13.143C0.128404 12.9145 0 12.6045 0 12.2812L0 9.84375C0 9.73601 0.0428012 9.63267 0.118988 9.55649C0.195175 9.4803 0.298506 9.4375 0.40625 9.4375ZM12.5938 9.4375C12.7015 9.4375 12.8048 9.4803 12.881 9.55649C12.9572 9.63267 13 9.73601 13 9.84375V12.2812C13 12.6045 12.8716 12.9145 12.643 13.143C12.4145 13.3716 12.1045 13.5 11.7812 13.5H9.34375C9.23601 13.5 9.13267 13.4572 9.05649 13.381C8.9803 13.3048 8.9375 13.2015 8.9375 13.0938C8.9375 12.986 8.9803 12.8827 9.05649 12.8065C9.13267 12.7303 9.23601 12.6875 9.34375 12.6875H11.7812C11.889 12.6875 11.9923 12.6447 12.0685 12.5685C12.1447 12.4923 12.1875 12.389 12.1875 12.2812V9.84375C12.1875 9.73601 12.2303 9.63267 12.3065 9.55649C12.3827 9.4803 12.486 9.4375 12.5938 9.4375Z" fill="#1FDA53"/>
<path d="M3.34026 10.7917C3.34026 10.7917 2.70831 10.7917 2.70831 10.1597C2.70831 9.52779 3.34026 7.63195 6.49998 7.63195C9.6597 7.63195 10.2916 9.52779 10.2916 10.1597C10.2916 10.7917 9.6597 10.7917 9.6597 10.7917H3.34026ZM8.39581 5.10418C8.39581 5.60698 8.19607 6.0892 7.84054 6.44473C7.485 6.80027 7.00279 7.00001 6.49998 7.00001C5.99717 7.00001 5.51496 6.80027 5.15942 6.44473C4.80389 6.0892 4.60415 5.60698 4.60415 5.10418C4.60415 4.60137 4.80389 4.11916 5.15942 3.76362C5.51496 3.40808 5.99717 3.20834 6.49998 3.20834C7.00279 3.20834 7.485 3.40808 7.84054 3.76362C8.19607 4.11916 8.39581 4.60137 8.39581 5.10418Z" fill="#1FDA53"/>
</g>
<defs>
<clipPath id="clip0_573_9466">
<rect width="13" height="13" fill="white" transform="translate(0 0.5)"/>
</clipPath>
</defs>
</svg>
