<svg width="15" height="16" viewBox="0 0 15 16" fill="none" xmlns="http://www.w3.org/2000/svg">
<g id="SendFill" clip-path="url(#clip0_547_4357)">
<path id="Vector" d="M14.966 1.14319C15.0001 1.058 15.0084 0.964683 14.99 0.874799C14.9715 0.784915 14.9271 0.702419 14.8623 0.637538C14.7974 0.572657 14.7149 0.528244 14.625 0.509806C14.5351 0.491368 14.4418 0.499715 14.3566 0.533812L0.718789 5.98913H0.717851L0.294101 6.15788C0.213842 6.18989 0.143994 6.24347 0.0922723 6.31269C0.0405505 6.3819 0.00896821 6.46407 0.00101396 6.55012C-0.0069403 6.63616 0.00904307 6.72272 0.0471985 6.80025C0.085354 6.87778 0.144197 6.94325 0.217226 6.98944L0.601601 7.23319L0.602539 7.23506L5.28535 10.2144L8.26473 14.8973L8.2666 14.8991L8.51035 15.2835C8.55669 15.3562 8.62219 15.4148 8.69966 15.4527C8.77713 15.4906 8.86356 15.5064 8.94944 15.4984C9.03531 15.4903 9.1173 15.4588 9.18639 15.4071C9.25547 15.3555 9.30896 15.2858 9.34098 15.2057L14.966 1.14319ZM13.2475 2.91506L6.22191 9.94069L6.02035 9.62381C5.98342 9.56566 5.93412 9.51637 5.87598 9.47944L5.5591 9.27788L12.5847 2.25225L13.6891 1.81069L13.2475 2.91506Z" fill="black"/>
</g>
<defs>
<clipPath id="clip0_547_4357">
<rect width="15" height="15" fill="white" transform="translate(0 0.5)"/>
</clipPath>
</defs>
</svg>
