<svg width="13" height="14" viewBox="0 0 13 14" fill="none" xmlns="http://www.w3.org/2000/svg">
<g clip-path="url(#clip0_573_9476)">
<path d="M11.4725 8.75744L12.8659 9.45456C13.0447 9.54394 13.0447 9.79906 12.8659 9.88844L6.71691 12.9638C6.6495 12.9972 6.57525 13.0147 6.49997 13.0147C6.4247 13.0147 6.35045 12.9972 6.28303 12.9638L0.134034 9.88844C0.0938654 9.86819 0.0601069 9.83719 0.0365198 9.79889C0.0129328 9.76058 0.000443517 9.71648 0.000443517 9.6715C0.000443517 9.62652 0.0129328 9.58242 0.0365198 9.54412C0.0601069 9.50581 0.0938654 9.47481 0.134034 9.45456L1.52828 8.75744L5.84835 10.9179C6.25866 11.1226 6.7421 11.1226 7.1516 10.9179L11.4717 8.75663L11.4725 8.75744ZM6.28303 0.551188C6.35045 0.517691 6.4247 0.500259 6.49997 0.500259C6.57525 0.500259 6.6495 0.517691 6.71691 0.551188L12.8659 3.62569C12.906 3.64607 12.9398 3.67716 12.9633 3.71552C12.9869 3.75388 12.9993 3.79802 12.9993 3.84303C12.9993 3.88805 12.9869 3.93218 12.9633 3.97054C12.9398 4.00891 12.906 4.04 12.8659 4.06038L6.71691 7.13406C6.6495 7.16756 6.57525 7.18499 6.49997 7.18499C6.4247 7.18499 6.35045 7.16756 6.28303 7.13406L0.134034 4.06038C0.0936525 4.04021 0.0596874 4.00919 0.035948 3.9708C0.0122086 3.93241 -0.000366211 3.88817 -0.000366211 3.84303C-0.000366211 3.7979 0.0122086 3.75365 0.035948 3.71526C0.0596874 3.67687 0.0936525 3.64585 0.134034 3.62569L6.28303 0.551188Z" fill="#1FDA53"/>
<path d="M11.4725 5.843L12.866 6.54013C13.0447 6.6295 13.0447 6.88463 12.866 6.974L6.71695 10.0485C6.64954 10.082 6.57529 10.0994 6.50002 10.0994C6.42474 10.0994 6.35049 10.082 6.28308 10.0485L0.134079 6.974C0.0939101 6.95376 0.0601516 6.92275 0.0365646 6.88445C0.0129776 6.84615 0.000488281 6.80205 0.000488281 6.75706C0.000488281 6.71208 0.0129776 6.66798 0.0365646 6.62968C0.0601516 6.59138 0.0939101 6.56037 0.134079 6.54013L1.52833 5.843L5.84839 8.00344C6.2587 8.20819 6.74214 8.20819 7.15164 8.00344L11.4725 5.843Z" fill="#1FDA53"/>
</g>
<defs>
<clipPath id="clip0_573_9476">
<rect width="13" height="13" fill="white" transform="translate(0 0.5)"/>
</clipPath>
</defs>
</svg>
