<svg width="31" height="30" viewBox="0 0 31 30" fill="none" xmlns="http://www.w3.org/2000/svg">
<path d="M25.1875 8.50833L24.8416 8.62083L23 8.78333L22.4708 9.61667L22.0916 9.49583L20.5958 8.16667L20.3791 7.475L20.0833 6.73333L19.1541 5.9L18.0583 5.6875L18.0333 6.1875L19.1083 7.2375L19.6333 7.85417L19.0416 8.16667L18.5625 8.025L17.8416 7.72083V7.14167L16.925 6.75L16.6125 8.12083L15.6583 8.33333L15.7541 9.1L17.0041 9.3375L17.2208 8.11667L18.2458 8.27083L18.7208 8.55H19.4875L20 9.58333L21.3916 10.9917L21.2875 11.5417L20.1666 11.4L18.2333 12.375L16.8416 14.0417L16.6625 14.7833H16.1583L15.2291 14.3667L14.325 14.7833L14.55 15.7375L14.9416 15.2833H15.6375L15.5875 16.1167L16.1625 16.2833L16.75 16.9458L17.6666 16.6667L18.7375 16.8333L19.9875 17.1667L20.6041 17.2417L21.6541 18.4333L23.6833 19.625L22.3708 22.125L20.9875 22.7667L20.4625 24.2L18.4583 25.5375L18.2458 26.3083C20.0666 25.8635 21.7535 24.9865 23.1635 23.7515C24.5736 22.5166 25.6653 20.9601 26.3463 19.2138C27.0274 17.4675 27.2776 15.5829 27.0759 13.7194C26.8741 11.8559 26.2264 10.0684 25.1875 8.50833Z" fill="#1FDA53"/>
<path d="M16.8418 21.0958L16.0084 19.5208L16.7709 17.9167L15.9918 17.6833L15.1168 16.8042L13.1751 16.3875L12.5334 15V15.8H12.2501L10.5834 13.5333V11.6667L9.35842 9.675L7.41259 10.0208H6.09592L5.43342 9.60417L6.26675 8.9375L5.43342 9.12917C4.40167 10.901 3.85507 12.9134 3.84869 14.9637C3.84231 17.014 4.37636 19.0298 5.39706 20.808C6.41775 22.5862 7.88904 24.064 9.66271 25.0925C11.4364 26.121 13.4498 26.664 15.5001 26.6667C15.9892 26.6616 16.4776 26.6268 16.9626 26.5625L16.8418 25.15C16.8418 25.15 17.3793 23.0667 17.3793 22.9833C17.3793 22.9 16.8418 21.0958 16.8418 21.0958Z" fill="#1FDA53"/>
<path d="M8.17095 7.08333L10.2543 6.79167L11.2084 6.27083L12.2834 6.57917L14.0001 6.48333L14.5918 5.55833L15.4459 5.7L17.5293 5.50417L18.1043 4.87083L18.9376 4.33333L20.0793 4.50417L20.4959 4.44167C18.1537 3.33137 15.5076 3.03543 12.978 3.60085C10.4483 4.16627 8.18008 5.56063 6.53345 7.5625L8.17095 7.08333ZM15.9918 4.49167L17.1668 3.8375L17.9334 4.27917L16.8251 5.1125L15.7668 5.22083L15.2918 4.9125L15.9918 4.49167ZM12.4626 4.58333L13.0001 4.80833L13.6793 4.58333L14.0543 5.23333L12.4626 5.65L11.7001 5.20833C11.7001 5.20833 12.4459 4.72917 12.4626 4.58333Z" fill="#1FDA53"/>
</svg>
