<svg width="40" height="41" viewBox="0 0 40 41" fill="none" xmlns="http://www.w3.org/2000/svg">
<g clip-path="url(#clip0_494_1044)">
<path d="M30.0003 30.5001C35.5232 24.9772 35.5232 16.0228 30.0003 10.4999C24.4774 4.97698 15.523 4.97698 10.0001 10.4999C4.4772 16.0228 4.4772 24.9772 10.0001 30.5001C15.523 36.023 24.4774 36.023 30.0003 30.5001Z" fill="black"/>
<path d="M25.1897 12.4219H27.9323L21.9111 19.2782L28.9457 28.5781H23.4254L19.1028 22.9269L14.1546 28.5781H11.4121L17.791 21.2456L11.0544 12.4219H16.712L20.6151 17.585L25.1897 12.4219ZM24.2302 26.9689H25.7505L15.913 13.9718H14.2796L24.2302 26.9689Z" fill="white"/>
</g>
<defs>
<clipPath id="clip0_494_1044">
<rect width="40" height="40" fill="white" transform="translate(0 0.5)"/>
</clipPath>
</defs>
</svg>
