<svg width="40" height="41" viewBox="0 0 40 41" fill="none" xmlns="http://www.w3.org/2000/svg">
<g clip-path="url(#clip0_494_1036)">
<path d="M30.0003 30.5001C35.5232 24.9772 35.5232 16.0228 30.0003 10.4999C24.4774 4.97701 15.523 4.97701 10.0001 10.4999C4.4772 16.0228 4.4772 24.9772 10.0001 30.5001C15.523 36.0231 24.4774 36.0231 30.0003 30.5001Z" fill="black"/>
<path fill-rule="evenodd" clip-rule="evenodd" d="M12.135 17.6611H15.3197V28.3538H12.135V17.6611ZM13.708 12.2347C14.2191 12.2347 14.7092 12.4377 15.0706 12.7991C15.432 13.1604 15.635 13.6505 15.635 14.1616C15.635 14.6726 15.432 15.1627 15.0706 15.5241C14.7092 15.8855 14.2191 16.0885 13.708 16.0885C13.197 16.0885 12.707 15.8855 12.3456 15.5241C11.9843 15.1627 11.7812 14.6726 11.7812 14.1616C11.7812 13.6505 11.9843 13.1604 12.3456 12.7991C12.707 12.4377 13.197 12.2347 13.708 12.2347ZM17.2071 17.6611H20.3528V19.1551C20.6861 18.6583 21.1368 18.2513 21.6649 17.9701C22.193 17.6889 22.7823 17.5422 23.3806 17.543H24.2457C25.2038 17.5472 26.1214 17.9296 26.7989 18.6072C27.4763 19.2847 27.8587 20.2025 27.8628 21.1606V28.3538H24.7169V27.3706V22.5736C24.7265 22.2937 24.6799 22.0147 24.5795 21.7532C24.4792 21.4917 24.3273 21.253 24.133 21.0513C23.9387 20.8496 23.7058 20.6889 23.4482 20.579C23.1906 20.469 22.9136 20.4119 22.6335 20.4111C22.0471 20.405 21.4811 20.6273 21.0555 21.0309C20.6299 21.4344 20.3779 21.9876 20.3528 22.5736V28.3543H17.2071V17.6611Z" fill="white"/>
</g>
<defs>
<clipPath id="clip0_494_1036">
<rect width="40" height="40" fill="white" transform="translate(0 0.5)"/>
</clipPath>
</defs>
</svg>
